Coordinates
version=1
nRows=28
nColumns=33
inDegrees=yes

Units are S.I. units (second, meters, Newtons, ...)
Angles are in degrees.

endheader
time	ground_thorax_rot_x	ground_thorax_rot_y	ground_thorax_rot_z	ground_thorax_tx	ground_thorax_ty	ground_thorax_tz	clav_prot_r	clav_elev_r	scapula_abduction_r	scapula_elevation_r	scapula_upward_rot_r	scapula_winging_r	shoulder_elv_r	plane_of_elev_r	axial_rot_r	elbow_flexion_r	pro_sup_r	wrist_flex_r	wrist_dev_r	clav_prot_l	clav_elev_l	scapula_abduction_l	scapula_elevation_l	scapula_upward_rot_l	scapula_winging_l	shoulder_elv_l	plane_of_elev_l	axial_rot_l	elbow_flexion_l	pro_sup_l	wrist_flex_l	wrist_dev_l	
6.9500	-90.000000	90.000000	-90.000000	-246.850894	832.545900	6.699161	25.559135	41.233162	45.000000	45.000000	17.581432	3224.831975	-259.295303	26.316152	-160.124450	741.852098	107.028284	15.771123	3.130163	-45.000000	2.503008	33.839696	-12.900183	-45.000000	-1333.736247	-242.533215	11.998568	-161.617137	2168.893243	34.716477	5.320072	-22.822908	
6.9600	-90.000000	90.000000	-90.000000	-246.396617	831.539610	6.570957	25.534805	41.280341	45.000000	45.000000	17.672376	3224.827971	-259.263618	26.306208	-159.886702	741.982442	108.264472	15.591720	3.147824	-45.000000	2.821336	33.911953	-13.090561	-45.000000	-1333.731549	-242.668063	11.960503	-161.452397	2168.826914	34.459822	5.188490	-22.886517	
6.9700	-90.000000	90.000000	-90.000000	-245.924061	830.573307	6.449472	25.506593	41.348412	45.000000	45.000000	17.764530	3224.822536	-259.247556	26.295230	-159.688653	742.107949	109.494493	15.398356	3.152502	-45.000000	3.253840	34.018830	-13.311785	-45.000000	-1333.812091	-242.796644	11.888823	-161.303392	2168.758222	34.242007	5.010555	-22.984214	
6.9800	-90.000000	90.000000	-90.000000	-245.390216	829.679441	6.343548	25.509234	41.381759	45.000000	45.000000	17.830070	3224.823276	-259.234212	26.278502	-159.527314	742.225113	110.715369	15.222427	3.185907	-45.000000	3.482634	34.119326	-13.467254	-45.000000	-1333.826334	-242.897972	11.855945	-161.197107	2168.715518	34.133611	4.872441	-23.018618	
6.9900	-90.000000	90.000000	-90.000000	-244.812315	828.877988	6.250816	25.528547	41.400720	45.000000	45.000000	17.872434	3224.828715	-259.225504	26.257298	-159.417957	742.335545	111.917704	15.059209	3.227847	-45.000000	3.620787	34.228229	-13.586650	-45.000000	-1333.832478	-242.974218	11.836727	-161.127791	2168.696398	34.126428	4.743009	-23.028052	
7.0000	-90.000000	90.000000	-90.000000	-244.198345	828.192000	6.169128	25.563138	41.407904	45.000000	45.000000	17.897276	3224.839188	-259.229722	26.231657	-159.371011	742.439098	113.093852	14.907139	3.273364	-45.000000	3.685132	34.344436	-13.671568	-45.000000	-1333.838596	-243.024434	11.824603	-161.098815	2168.697892	34.219982	4.621251	-23.021904	
7.0100	-90.000000	90.000000	-90.000000	-243.565629	827.637980	6.092930	25.604904	41.409212	45.000000	45.000000	17.899031	3224.854485	-259.235359	26.204911	-159.382252	742.537554	114.233009	14.773447	3.312098	-45.000000	3.696370	34.459605	-13.724659	-45.000000	-1333.842573	-243.056265	11.822606	-161.103336	2168.724010	34.392170	4.508839	-23.011077	
7.0200	-90.000000	90.000000	-90.000000	-242.928320	827.225252	6.015692	25.649690	41.409853	45.000000	45.000000	17.894489	3224.871207	-259.256088	26.175441	-159.452040	742.632351	115.331090	14.650881	3.336857	-45.000000	3.696450	34.568357	-13.755165	-45.000000	-1333.854876	-243.075518	11.818780	-161.140400	2168.762554	34.610572	4.403429	-23.012338	
7.0300	-90.000000	90.000000	-90.000000	-242.288296	826.955832	5.932185	25.695245	41.410185	45.000000	45.000000	17.869568	3224.887776	-259.269700	26.146970	-159.560283	742.727266	116.386406	14.548945	3.345951	-45.000000	3.658590	34.659010	-13.752540	-45.000000	-1333.848376	-243.087912	11.828153	-161.204965	2168.820260	34.842870	4.320195	-23.018906	
7.0400	-90.000000	90.000000	-90.000000	-241.637047	826.824181	5.839353	25.744469	41.407044	45.000000	45.000000	17.846657	3224.899628	-259.298645	26.115345	-159.704775	742.821216	117.407284	14.455707	3.342521	-45.000000	3.600530	34.730493	-13.725999	-45.000000	-1333.831032	-243.100414	11.840904	-161.297368	2168.885161	35.058247	4.259070	-23.034344	
7.0500	-90.000000	90.000000	-90.000000	-240.958386	826.817727	5.736560	25.793829	41.407464	45.000000	45.000000	17.803109	3224.905299	-259.315142	26.086574	-159.865428	742.915387	118.399937	14.377138	3.325794	-45.000000	3.516790	34.782281	-13.673343	-45.000000	-1333.787350	-243.118001	11.868917	-161.411047	2168.959953	35.230859	4.223420	-23.055858	
7.0600	-90.000000	90.000000	-90.000000	-240.231991	826.917978	5.625336	25.848555	41.402210	45.000000	45.000000	17.766725	3224.901634	-259.350670	26.053320	-160.044629	743.008938	119.380121	14.299615	3.303584	-45.000000	3.418650	34.821380	-13.604288	-45.000000	-1333.730615	-243.140042	11.899731	-161.543674	2169.032071	35.343678	4.211564	-23.082623	
7.0700	-90.000000	90.000000	-90.000000	-239.435920	827.102482	5.508684	25.904421	41.402375	45.000000	45.000000	17.707060	3224.888389	-259.371892	26.022656	-160.223320	743.106063	120.358818	14.229002	3.274757	-45.000000	3.310458	34.856855	-13.519662	-45.000000	-1333.656544	-243.163386	11.940574	-161.685244	2169.102861	35.385956	4.221209	-23.112529	
7.0800	-90.000000	90.000000	-90.000000	-238.549119	827.347052	5.390321	25.967567	41.394736	45.000000	45.000000	17.655852	3224.863750	-259.416345	25.986776	-160.408366	743.206752	121.353204	14.151715	3.248223	-45.000000	3.201652	34.894055	-13.428552	-45.000000	-1333.580646	-243.186757	11.977185	-161.830331	2169.163023	35.354934	4.249519	-23.143268	
7.0900	-90.000000	90.000000	-90.000000	-237.552542	827.627927	5.273904	26.032741	41.393496	45.000000	45.000000	17.577426	3224.828146	-259.445229	25.953192	-160.582022	743.314482	122.373482	14.075534	3.220888	-45.000000	3.095390	34.932945	-13.327274	-45.000000	-1333.491686	-243.208360	12.015557	-161.971277	2169.214609	35.251475	4.293641	-23.173901	
7.1000	-90.000000	90.000000	-90.000000	-236.430491	827.923490	5.162564	26.107101	41.382407	45.000000	45.000000	17.510107	3224.780056	-259.501942	25.910420	-160.755141	743.427506	123.441182	13.987734	3.201104	-45.000000	2.996343	34.976213	-13.225477	-45.000000	-1333.412054	-243.226215	12.039835	-162.104221	2169.261996	35.079565	4.349808	-23.203019	
7.1100	-90.000000	90.000000	-90.000000	-235.170694	828.215386	5.058599	26.185371	41.379068	45.000000	45.000000	17.421214	3224.722359	-259.548992	25.860820	-160.909472	743.547115	124.583865	13.897486	3.184097	-45.000000	2.908344	35.028196	-13.129189	-45.000000	-1333.348393	-243.239345	12.054582	-162.220129	2169.320973	34.839682	4.413280	-23.230968	
7.1200	-90.000000	90.000000	-90.000000	-233.764602	828.488773	4.963502	26.272658	41.370884	45.000000	45.000000	17.337337	3224.654134	-259.615973	25.797827	-161.050485	743.670745	125.837300	13.795271	3.175362	-45.000000	2.829184	35.088509	-13.043777	-45.000000	-1333.312921	-243.249484	12.050023	-162.314360	2169.394721	34.534333	4.483375	-23.257253	
7.1300	-90.000000	90.000000	-90.000000	-232.206890	828.732124	4.878105	26.364050	41.372081	45.000000	45.000000	17.227585	3224.575872	-259.667906	25.727393	-161.162446	743.798365	127.233481	13.688577	3.169994	-45.000000	2.756864	35.153099	-12.968823	-45.000000	-1333.296356	-243.262215	12.030649	-162.381810	2169.480164	34.164577	4.560017	-23.280599	
7.1400	-90.000000	90.000000	-90.000000	-230.495071	828.936569	4.802857	26.463861	41.369436	45.000000	45.000000	17.115378	3224.484729	-259.730846	25.646852	-161.253161	743.927605	128.800186	13.568812	3.172404	-45.000000	2.685178	35.221038	-12.903312	-45.000000	-1333.299890	-243.282424	11.990023	-162.421802	2169.563574	33.733260	4.646291	-23.298809	
7.1500	-90.000000	90.000000	-90.000000	-228.628540	829.095287	4.738025	26.568342	41.371188	45.000000	45.000000	16.979481	3224.379455	-259.781457	25.561838	-161.315708	744.061261	130.550407	13.440810	3.178243	-45.000000	2.611567	35.291851	-12.842005	-45.000000	-1333.307566	-243.311072	11.940478	-162.429621	2169.640452	33.241063	4.743687	-23.311263	
7.1600	-90.000000	90.000000	-90.000000	-226.608062	829.202897	4.683910	26.679464	41.369274	45.000000	45.000000	16.832814	3224.255909	-259.833668	25.473944	-161.357920	744.197965	132.486724	13.300145	3.188895	-45.000000	2.531009	35.361314	-12.776286	-45.000000	-1333.310504	-243.352046	11.876929	-162.404985	2169.693441	32.689944	4.856779	-23.316008	
7.1700	-90.000000	90.000000	-90.000000	-224.435215	829.255073	4.640985	26.795105	41.368629	45.000000	45.000000	16.666767	3224.112997	-259.878434	25.386738	-161.378607	744.338554	134.603178	13.149925	3.201480	-45.000000	2.444180	35.429054	-12.703788	-45.000000	-1333.301960	-243.403739	11.803256	-162.344939	2169.720552	32.077913	4.987134	-23.312469	
7.1800	-90.000000	90.000000	-90.000000	-222.112058	829.248280	4.609988	26.916085	41.363942	45.000000	45.000000	16.495001	3223.950974	-259.927548	25.297791	-161.386464	744.474322	136.878843	12.989102	3.217737	-45.000000	2.347572	35.495896	-12.623975	-45.000000	-1333.283750	-243.465513	11.717691	-162.250201	2169.727358	31.404817	5.136653	-23.301525	
7.1900	-90.000000	90.000000	-90.000000	-219.641227	829.179652	4.591899	27.040465	41.358017	45.000000	45.000000	16.315138	3223.772452	-259.976029	25.207707	-161.383618	744.601841	139.280201	12.821267	3.236094	-45.000000	2.240723	35.564245	-12.537692	-45.000000	-1333.249433	-243.531835	11.633251	-162.115933	2169.735141	30.670228	5.305116	-23.286747	
7.2000	-90.000000	90.000000	-90.000000	-217.026064	829.046849	4.587802	27.167549	41.351350	45.000000	45.000000	16.131395	3223.578109	-260.022515	25.116578	-161.374117	744.715142	141.767609	12.649039	3.255755	-45.000000	2.123418	35.634421	-12.442920	-45.000000	-1333.197940	-243.604124	11.546003	-161.942109	2169.744343	29.877564	5.494459	-23.268013	
7.2100	-90.000000	90.000000	-90.000000	-214.270315	828.847942	4.598596	27.296852	41.343231	45.000000	45.000000	15.946098	3223.369083	-260.068596	25.024832	-161.362361	744.809788	144.296179	12.474785	3.276443	-45.000000	1.995170	35.706090	-12.339270	-45.000000	-1333.122277	-243.680040	11.461936	-161.727656	2169.762055	29.032628	5.706273	-23.246590	
7.2200	-90.000000	90.000000	-90.000000	-211.378060	828.581217	4.624639	27.428259	41.334044	45.000000	45.000000	15.763706	3223.147735	-260.114669	24.930869	-161.353209	744.880714	146.820541	12.301653	3.297252	-45.000000	1.856818	35.782111	-12.227011	-45.000000	-1333.025209	-243.762060	11.376116	-161.475199	2169.786809	28.143908	5.941663	-23.221294	
